<svg preserveAspectRatio="none" width="1440" height="1036" viewBox="0 0 1440 1036" fill="none" xmlns="http://www.w3.org/2000/svg">
<mask id="mask0_3_204" style="mask-type:alpha" maskUnits="userSpaceOnUse" x="-103" y="0" width="1789" height="1036">
<rect x="-103" width="1789" height="1036" fill="#D9D9D9"/>
</mask>
<g mask="url(#mask0_3_204)">
<g opacity="0.7" filter="url(#filter0_f_3_204)">
<ellipse cx="720" cy="970" rx="665" ry="571" fill="url(#paint0_linear_3_204)"/>
</g>
<g filter="url(#filter1_f_3_204)">
<ellipse cx="735.5" cy="733.5" rx="791.5" ry="679.5" fill="url(#paint1_linear_3_204)"/>
</g>
<g filter="url(#filter2_d_3_204)">
<path d="M1006 994.006C1206.58 951.477 1337 912.665 1442 947.465V1998.47C1227.6 1950.31 1034 1992.47 936 2004.47C619.256 2043.25 448 1998.47 336 1979C145.6 1945.89 31 1983.59 -11 1993V1033.26C73 986.235 132 977.065 402 1004.34C663.116 1030.72 702 1058.46 1006 994.006Z" fill="white"/>
</g>
</g>
<defs>
<filter id="filter0_f_3_204" x="-45" y="299" width="1530" height="1342" filterUnits="userSpaceOnUse" color-interpolation-filters="sRGB">
<feFlood flood-opacity="0" result="BackgroundImageFix"/>
<feBlend mode="normal" in="SourceGraphic" in2="BackgroundImageFix" result="shape"/>
<feGaussianBlur stdDeviation="50" result="effect1_foregroundBlur_3_204"/>
</filter>
<filter id="filter1_f_3_204" x="-156" y="-46" width="1783" height="1559" filterUnits="userSpaceOnUse" color-interpolation-filters="sRGB">
<feFlood flood-opacity="0" result="BackgroundImageFix"/>
<feBlend mode="normal" in="SourceGraphic" in2="BackgroundImageFix" result="shape"/>
<feGaussianBlur stdDeviation="50" result="effect1_foregroundBlur_3_204"/>
</filter>
<filter id="filter2_d_3_204" x="-51" y="864" width="1613" height="1245.79" filterUnits="userSpaceOnUse" color-interpolation-filters="sRGB">
<feFlood flood-opacity="0" result="BackgroundImageFix"/>
<feColorMatrix in="SourceAlpha" type="matrix" values="0 0 0 0 0 0 0 0 0 0 0 0 0 0 0 0 0 0 127 0" result="hardAlpha"/>
<feOffset dx="40" dy="10"/>
<feGaussianBlur stdDeviation="40"/>
<feColorMatrix type="matrix" values="0 0 0 0 0.641667 0 0 0 0 0.849638 0 0 0 0 0.875 0 0 0 1 0"/>
<feBlend mode="normal" in2="BackgroundImageFix" result="effect1_dropShadow_3_204"/>
<feBlend mode="normal" in="SourceGraphic" in2="effect1_dropShadow_3_204" result="shape"/>
</filter>
<linearGradient id="paint0_linear_3_204" x1="265.392" y1="448.145" x2="251.953" y2="1314.51" gradientUnits="userSpaceOnUse">
<stop offset="0.0121435" stop-color="#FFC7A8" stop-opacity="0.19"/>
<stop offset="0.492135" stop-color="#5BBAFF" stop-opacity="0.355023"/>
<stop offset="1" stop-color="white" stop-opacity="0"/>
</linearGradient>
<linearGradient id="paint1_linear_3_204" x1="194.413" y1="112.483" x2="178.424" y2="1143.47" gradientUnits="userSpaceOnUse">
<stop offset="0.0121435" stop-color="#FFC7A8" stop-opacity="0.19"/>
<stop offset="0.492135" stop-color="#5BBAFF" stop-opacity="0.355023"/>
<stop offset="1" stop-color="white" stop-opacity="0"/>
</linearGradient>
</defs>
</svg>
