<svg preserveAspectRatio="none" width="1436" height="457" viewBox="0 0 1436 457" fill="none" xmlns="http://www.w3.org/2000/svg">
<mask id="mask0_19_1230" style="mask-type:alpha" maskUnits="userSpaceOnUse" x="0" y="0" width="1436" height="457">
<rect width="1436" height="457" fill="#D9D9D9"/>
</mask>
<g mask="url(#mask0_19_1230)">
<path opacity="0.5" d="M993.991 962.275C1192.9 1009.46 1334.98 1046.9 1439.67 1012.2V123.986C1225.9 171.999 1014.93 95.0993 927.189 64.1534C662.973 -11.6864 454.592 22.1335 342.923 41.5505C153.086 74.5594 31.8757 79.0607 -10 69.6831V903.699C73.7515 950.586 119 971.083 391.778 932.534C635 898.162 677 887.082 993.991 962.275Z" fill="#E6F6FF"/>
<path d="M993.991 65.4809C1192.9 18.2979 1334.98 -19.1391 1439.67 15.5582V631.696C1225.9 583.683 1014.93 660.583 927.189 691.529C662.973 767.369 454.592 733.549 342.923 714.132C153.086 681.123 31.8757 676.622 -10 686V124.058C73.7515 77.17 119 56.6738 391.778 95.2225C635 129.594 677 140.674 993.991 65.4809Z" fill="url(#paint0_linear_19_1230)"/>
<path opacity="0.2" d="M1343.73 227.692C1401.53 134.291 1567.52 77.2126 1641.62 52.0093L1775 69.7999V643.547L559 668.009L641.252 603.518C767.521 494.996 900.236 471.245 1055.85 450.074C1194.79 431.172 1240.36 387.807 1265.92 350.002C1286.98 318.868 1320.76 258.084 1343.73 227.692Z" fill="#ECF4FF"/>
</g>
<defs>
<linearGradient id="paint0_linear_19_1230" x1="36" y1="-199" x2="735.112" y2="327.872" gradientUnits="userSpaceOnUse">
<stop stop-color="#59FFE5"/>
<stop offset="1" stop-color="#567FEA"/>
</linearGradient>
</defs>
</svg>
