<svg width="23" height="23" viewBox="0 0 23 23" fill="none" xmlns="http://www.w3.org/2000/svg">
<path d="M11.5 23C17.8513 23 23 17.8513 23 11.5C23 5.14873 17.8513 0 11.5 0C5.14873 0 0 5.14873 0 11.5C0 17.8513 5.14873 23 11.5 23Z" fill="#111C63"/>
<path d="M18.9696 8.25801C18.9424 6.02755 17.12 4.20448 14.8895 4.17632C13.4971 4.15875 12.2604 4.82979 11.4986 5.87036C10.7368 4.82979 9.50009 4.15875 8.1076 4.17632C5.87718 4.20448 4.05488 6.02759 4.02766 8.25805C4.01638 9.18003 4.30703 10.0336 4.80688 10.7262C5.65976 11.908 6.20673 13.2827 6.46022 14.7179L6.67172 17.6653C6.92997 19.1273 8.20045 20.1931 9.68521 20.1931H10.3586V15.228C10.3586 14.5984 10.869 14.088 11.4987 14.088C12.1283 14.088 12.6387 14.5984 12.6387 15.228V20.1932H13.3121C14.7968 20.1932 16.0674 19.1274 16.3256 17.6653L16.5371 14.7179C16.7906 13.2827 17.3375 11.908 18.1904 10.7263C18.6902 10.0336 18.9809 9.18003 18.9696 8.25801V8.25801Z" fill="white"/>
<path d="M16.7496 15.4113C18.8053 15.4113 20.4718 13.7448 20.4718 11.6891C20.4718 9.63333 18.8053 7.96683 16.7496 7.96683C14.6938 7.96683 13.0273 9.63333 13.0273 11.6891C13.0273 13.7448 14.6938 15.4113 16.7496 15.4113Z" fill="#1DCBB6"/>
<rect x="16.2773" y="9.55376" width="1.41538" height="4.6" rx="0.707692" fill="white"/>
<rect x="14.6846" y="12.5612" width="1.41538" height="4.6" rx="0.707692" transform="rotate(-90 14.6846 12.5612)" fill="white"/>
</svg>
