<svg width="23" height="23" viewBox="0 0 23 23" fill="none" xmlns="http://www.w3.org/2000/svg">
<mask id="mask0_18_3705" style="mask-type:alpha" maskUnits="userSpaceOnUse" x="0" y="0" width="23" height="24">
<rect y="0.000244141" width="23" height="23" fill="#C4C4C4"/>
</mask>
<g mask="url(#mask0_18_3705)">
<path d="M20.5981 17.5784C20.6067 17.5384 20.6218 17.5049 20.6218 17.4628V14.6776C20.6218 12.4319 18.874 10.6055 16.7242 10.6055C14.5744 10.6055 12.8268 12.4319 12.8268 14.6776L12.829 17.1157C12.829 18.7664 11.5732 20.1101 10.0311 20.1101C8.48918 20.1101 7.23442 18.7664 7.23442 17.1157V11.4563C9.97034 11.2453 12.1389 9.02433 12.1389 6.29394V1.53844C12.1389 1.24156 11.8921 1.00018 11.5886 1.00018H9.84613C9.54263 1.00018 9.29586 1.24156 9.29586 1.53844C9.29586 1.83549 9.54263 2.07669 9.84613 2.07669H11.0382V6.29376C11.0382 8.56844 9.14583 10.4205 6.81926 10.4205C4.49214 10.4205 2.60037 8.56844 2.60037 6.29376V2.07686H3.88477C4.18827 2.07686 4.43504 1.83567 4.43504 1.53861C4.43522 1.24156 4.18863 1.00018 3.88495 1.00018H2.05027C1.74659 1.00018 1.5 1.24156 1.5 1.53844V6.29376C1.5 8.93273 3.52616 11.0955 6.13369 11.4292V17.1157C6.13369 19.3616 7.88144 21.1868 10.0311 21.1868C12.1807 21.1868 13.9295 19.3616 13.9295 17.1157L13.9275 14.6776C13.9275 13.0258 15.183 11.6822 16.7244 11.6822C18.2657 11.6822 19.5212 13.0258 19.5212 14.6776V17.4626C19.5212 17.4797 19.5276 17.488 19.5298 17.5026C18.5862 17.6878 17.8724 18.5058 17.8724 19.4815C17.8724 20.5948 18.7967 21.5002 19.9362 21.5002C21.0735 21.5002 22 20.5948 22 19.4815C21.9996 18.596 21.4106 17.8496 20.5981 17.5784ZM19.9369 20.4235C19.407 20.4235 18.9739 19.9987 18.9739 19.4815C18.9739 18.9642 19.407 18.5393 19.9369 18.5393C20.4668 18.5393 20.9 18.9642 20.9 19.4815C20.9 19.9987 20.467 20.4235 19.9369 20.4235Z" fill="#2320D4"/>
</g>
</svg>
