<svg width="23" height="23" viewBox="0 0 23 23" fill="none" xmlns="http://www.w3.org/2000/svg">
<path d="M23 11.4998C23 17.8513 17.8508 22.9998 11.5 22.9998C5.14884 22.9998 0 17.8513 0 11.4998C0 5.14824 5.14884 -0.000244141 11.5 -0.000244141C17.8508 -0.000244141 23 5.14824 23 11.4998Z" fill="#521087"/>
<mask id="mask0_18_3749" style="mask-type:alpha" maskUnits="userSpaceOnUse" x="0" y="-1" width="23" height="24">
<rect y="-0.000244141" width="23" height="23" fill="#C4C4C4"/>
</mask>
<g mask="url(#mask0_18_3749)">
<path d="M7.0215 9.12569C6.37116 9.47596 5.94196 9.70758 6.02583 10.8959C6.11007 12.0885 7.58475 12.7714 8.80719 13.1343C10.2443 13.561 11.6867 13.6529 11.7011 13.6537L11.6436 14.6104C11.5807 14.6069 10.0902 14.5129 8.54956 14.0573C7.62096 13.7829 6.86571 13.4326 6.30382 13.0149C5.54121 12.4486 5.12603 11.7579 5.06988 10.9633C4.94252 9.15852 5.88067 8.65221 6.566 8.28235L6.56666 8.28199L6.56682 8.28191C7.14934 7.96821 7.5339 7.76112 7.5546 6.88871C7.57424 6.04007 6.86675 4.94794 5.50819 3.7308C5.03398 3.30598 4.55665 2.93559 4.16992 2.65375C4.25177 2.51221 4.72557 2.18545 4.95224 2.03976C5.31424 2.31131 5.73025 2.64302 6.14762 3.01702C7.74373 4.44754 8.53972 5.75723 8.51267 6.91121C8.47898 8.3403 7.63672 8.79443 7.0215 9.12569Z" fill="#E7C2A7"/>
<path d="M16.43 10.9473L14.3868 7.60267C14.3672 7.5662 14.3447 7.53106 14.3209 7.49881L13.5277 8.03511L13.5389 8.05406C13.567 8.18807 13.4512 8.71875 12.9816 9.35747C12.4826 10.0355 11.8807 10.4405 11.3708 10.4405C11.348 10.4405 11.3249 10.4398 11.302 10.4377L10.15 9.99093C9.62986 9.78918 9.04028 9.99673 8.76121 10.4798V10.4798C8.50052 10.9311 8.58183 11.5021 8.95811 11.8626L9.83926 12.707C9.26299 13.2903 9.04471 13.9754 8.91659 14.3776C8.90464 14.4141 8.89166 14.4555 8.87976 14.4913C8.82396 14.5096 8.80011 14.511 8.79377 14.511C8.77796 14.5082 8.7236 14.4829 8.68394 14.4647C8.52213 14.3903 8.27752 14.2773 7.83885 14.2296C7.79496 14.2247 7.75004 14.2226 7.70547 14.2226C7.21905 14.2226 6.70351 14.5012 6.17288 15.0515C5.81629 15.4214 5.57451 15.7892 5.56431 15.8047V15.8047C5.44388 15.9886 5.46419 16.231 5.61355 16.3924L6.26064 17.0915C6.67225 17.5362 7.3199 17.6723 7.87573 17.431V17.431C8.71835 18.3246 9.76595 18.7941 10.9255 18.7941C11.9496 18.7941 13.0189 18.4313 14.0184 17.7448C14.9407 17.111 15.7402 16.2356 16.268 15.2796C17.1249 13.7289 17.1846 12.1496 16.43 10.9473Z" fill="#E7C2A7"/>
<path d="M14.6858 2.73148C12.1948 2.73148 10.168 4.7587 10.168 7.25064C10.168 9.74182 12.1948 11.769 14.6858 11.769C17.1775 11.769 19.2047 9.74182 19.2047 7.25064C19.2047 4.7587 17.1775 2.73148 14.6858 2.73148Z" fill="#E7C2A7"/>
</g>
</svg>
