<svg width="23" height="23" viewBox="0 0 23 23" fill="none" xmlns="http://www.w3.org/2000/svg">
<path d="M19.0473 10.7813C18.952 10.7813 18.8606 10.7434 18.7932 10.676C18.7258 10.6086 18.688 10.5172 18.688 10.4219V9.54393C18.6854 8.6354 18.8631 7.73539 19.2108 6.89601C19.5585 6.05663 20.0692 5.29456 20.7134 4.65392C20.9475 4.41986 21.1069 4.12165 21.1714 3.797C21.236 3.47235 21.2029 3.13585 21.0762 2.83003C20.9495 2.52422 20.735 2.26284 20.4598 2.07894C20.1846 1.89504 19.861 1.79689 19.53 1.79689C19.1961 1.79594 18.8654 1.86123 18.557 1.98899C18.2485 2.11674 17.9685 2.30442 17.7331 2.54115L16.4264 3.84784C16.3586 3.9133 16.2679 3.94953 16.1736 3.94871C16.0794 3.94789 15.9893 3.91009 15.9226 3.84346C15.856 3.77683 15.8182 3.6867 15.8174 3.59247C15.8166 3.49824 15.8528 3.40746 15.9183 3.33968L17.225 2.033C17.5269 1.72931 17.8861 1.48854 18.2818 1.32464C18.6775 1.16074 19.1017 1.07695 19.53 1.07814C20.0031 1.07817 20.4656 1.21849 20.859 1.48137C21.2524 1.74425 21.559 2.11787 21.7401 2.555C21.9212 2.99213 21.9685 3.47313 21.8762 3.93718C21.7839 4.40123 21.5561 4.8275 21.2216 5.16207C20.6443 5.73618 20.1867 6.41907 19.8752 7.17121C19.5637 7.92336 19.4045 8.72983 19.4067 9.54393V10.4219C19.4067 10.5172 19.3689 10.6086 19.3015 10.676C19.2341 10.7434 19.1427 10.7813 19.0473 10.7813Z" fill="#FD8A8C"/>
<path d="M3.95298 10.4219C3.85766 10.4219 3.76626 10.384 3.69886 10.3166C3.63146 10.2492 3.5936 10.1578 3.5936 10.0625V9.54393C3.59586 8.72983 3.43662 7.92336 3.1251 7.17121C2.81358 6.41907 2.35597 5.73618 1.77876 5.16207C1.44421 4.8275 1.21638 4.40123 1.12409 3.93718C1.03179 3.47313 1.07917 2.99213 1.26023 2.555C1.44128 2.11787 1.7479 1.74425 2.14129 1.48137C2.53468 1.21849 2.99719 1.07817 3.47034 1.07814C3.8986 1.07695 4.32285 1.16074 4.71851 1.32464C5.11418 1.48854 5.47339 1.72931 5.77537 2.033L7.08206 3.33968C7.14752 3.40746 7.18374 3.49824 7.18292 3.59247C7.1821 3.6867 7.14431 3.77683 7.07768 3.84346C7.01105 3.91009 6.92091 3.94789 6.82668 3.94871C6.73246 3.94953 6.64168 3.9133 6.5739 3.84784L5.26721 2.54115C5.03181 2.30442 4.75178 2.11674 4.44334 1.98899C4.1349 1.86123 3.80418 1.79594 3.47034 1.79689C3.13933 1.79689 2.81575 1.89504 2.54053 2.07894C2.2653 2.26284 2.05079 2.52422 1.92412 2.83003C1.79745 3.13585 1.7643 3.47235 1.82888 3.797C1.89346 4.12165 2.05285 4.41986 2.28691 4.65392C2.93113 5.29456 3.44186 6.05663 3.78953 6.89601C4.1372 7.73539 4.31491 8.6354 4.31235 9.54393V10.0625C4.31235 10.1578 4.27449 10.2492 4.20709 10.3166C4.1397 10.384 4.04829 10.4219 3.95298 10.4219Z" fill="#FD8A8C"/>
<path d="M6.82813 3.59376V6.82814C6.82765 7.56102 7.00012 8.28367 7.33152 8.93735C7.66292 9.59102 8.14389 10.1573 8.73533 10.5901C8.81899 10.6474 8.88957 10.7218 8.94243 10.8083C8.99529 10.8949 9.02923 10.9917 9.04203 11.0923C9.05483 11.1929 9.04619 11.2951 9.01668 11.3921C8.98717 11.4891 8.93746 11.5788 8.87081 11.6553C8.49023 12.0477 8.27377 12.5706 8.26563 13.1172C8.28147 13.5142 8.39808 13.9006 8.60448 14.2401C8.81089 14.5796 9.10029 14.861 9.44545 15.0578C9.75145 15.2635 10.0011 15.5424 10.1717 15.8693C10.3422 16.1961 10.4282 16.5605 10.4219 16.9291V20.4844C10.4219 20.7703 10.5355 21.0445 10.7377 21.2467C10.9398 21.4489 11.2141 21.5625 11.5 21.5625C11.7859 21.5625 12.0602 21.4489 12.2623 21.2467C12.4645 21.0445 12.5781 20.7703 12.5781 20.4844V16.9291C12.5718 16.5605 12.6578 16.1961 12.8283 15.8693C12.9989 15.5424 13.2486 15.2635 13.5545 15.0578C13.8997 14.861 14.1891 14.5796 14.3955 14.2401C14.6019 13.9006 14.7185 13.5142 14.7344 13.1172C14.7262 12.5706 14.5098 12.0477 14.1292 11.6553C14.0625 11.5788 14.0128 11.4891 13.9833 11.3921C13.9538 11.2951 13.9452 11.1929 13.958 11.0923C13.9708 10.9917 14.0047 10.8949 14.0576 10.8083C14.1104 10.7218 14.181 10.6474 14.2647 10.5901C14.8561 10.1573 15.3371 9.59102 15.6685 8.93735C15.9999 8.28367 16.1723 7.56102 16.1719 6.82814V3.59376C14.7993 2.6434 13.1695 2.13425 11.5 2.13425C9.83051 2.13425 8.20072 2.6434 6.82813 3.59376V3.59376Z" fill="#F9645A"/>
<path d="M11.5 21.9219C11.1188 21.9219 10.7531 21.7704 10.4835 21.5008C10.214 21.2312 10.0625 20.8656 10.0625 20.4844V16.9291C10.0682 16.6208 9.99701 16.316 9.85548 16.0421C9.71394 15.7681 9.50646 15.5338 9.25175 15.36C8.85512 15.1316 8.52337 14.8057 8.28792 14.4132C8.05246 14.0207 7.92109 13.5746 7.90625 13.1172C7.91312 12.4799 8.16375 11.8695 8.60667 11.4112C8.6373 11.3785 8.66049 11.3395 8.67463 11.2969C8.68877 11.2544 8.69354 11.2093 8.68861 11.1647C8.68246 11.1081 8.66446 11.0535 8.6358 11.0043C8.60713 10.9551 8.56843 10.9126 8.52222 10.8794C7.88716 10.4115 7.37059 9.80135 7.01398 9.0978C6.65736 8.39424 6.47063 7.61689 6.46875 6.82812V3.59374C6.46877 3.53565 6.48287 3.47843 6.50985 3.42698C6.53682 3.37553 6.57587 3.33139 6.62364 3.29834C8.05863 2.31226 9.75886 1.78439 11.5 1.78439C13.2411 1.78439 14.9414 2.31226 16.3764 3.29834C16.4241 3.33139 16.4632 3.37553 16.4902 3.42698C16.5171 3.47843 16.5312 3.53565 16.5312 3.59374V6.82812C16.5294 7.61693 16.3426 8.39432 15.9859 9.09789C15.6293 9.80146 15.1126 10.4116 14.4774 10.8794C14.4313 10.9126 14.3927 10.9552 14.3641 11.0044C14.3355 11.0535 14.3175 11.1082 14.3114 11.1647C14.3064 11.2092 14.3112 11.2543 14.3253 11.2968C14.3395 11.3393 14.3627 11.3782 14.3933 11.4109C14.8362 11.8693 15.0868 12.4798 15.0938 13.1172C15.0789 13.5746 14.9475 14.0207 14.7121 14.4132C14.4766 14.8057 14.1449 15.1316 13.7483 15.36C13.4935 15.5338 13.2861 15.7681 13.1445 16.0421C13.003 16.316 12.9318 16.6208 12.9375 16.9291V20.4844C12.9375 20.8656 12.786 21.2312 12.5165 21.5008C12.2469 21.7704 11.8812 21.9219 11.5 21.9219V21.9219ZM7.1875 3.78457V6.82812C7.18932 7.50423 7.34956 8.1705 7.65537 8.7735C7.96118 9.3765 8.40404 9.89945 8.94844 10.3004C9.07623 10.3936 9.18292 10.5127 9.26157 10.6499C9.34021 10.7871 9.38903 10.9394 9.40484 11.0968C9.41969 11.242 9.40332 11.3888 9.35683 11.5272C9.31035 11.6656 9.23482 11.7924 9.13531 11.8993C8.81584 12.2251 8.63324 12.6609 8.625 13.1172C8.64134 13.4537 8.74299 13.7805 8.9204 14.0669C9.09781 14.3534 9.34515 14.59 9.63916 14.7545C9.99508 14.9937 10.2859 15.3177 10.4852 15.6973C10.6846 16.077 10.7864 16.5003 10.7812 16.9291V20.4844C10.7812 20.675 10.857 20.8578 10.9918 20.9926C11.1266 21.1274 11.3094 21.2031 11.5 21.2031C11.6906 21.2031 11.8734 21.1274 12.0082 20.9926C12.143 20.8578 12.2188 20.675 12.2188 20.4844V16.9291C12.2136 16.5003 12.3154 16.077 12.5148 15.6973C12.7141 15.3177 13.0049 14.9937 13.3608 14.7545C13.6549 14.59 13.9022 14.3534 14.0796 14.0669C14.257 13.7805 14.3587 13.4537 14.375 13.1172C14.3669 12.6609 14.1846 12.225 13.8654 11.8989C13.7659 11.7921 13.6904 11.6653 13.6439 11.527C13.5974 11.3886 13.581 11.242 13.5959 11.0968C13.6116 10.9395 13.6604 10.7873 13.7389 10.65C13.8174 10.5128 13.9239 10.3937 14.0516 10.3004C14.596 9.89949 15.0389 9.37655 15.3447 8.77354C15.6505 8.17053 15.8107 7.50424 15.8125 6.82812V3.78457C14.53 2.94739 13.0316 2.5016 11.5 2.5016C9.96844 2.5016 8.47 2.94739 7.1875 3.78457V3.78457Z" fill="#FD8A8C"/>
<path d="M11.5 14.5906C11.2109 14.1732 10.8418 13.8173 10.414 13.5438C10.2038 13.4094 10.0625 13.2379 10.0625 13.1172C10.0773 13.0245 10.1221 12.9393 10.1901 12.8746C10.426 12.6188 10.6053 12.3162 10.7164 11.9865C10.8275 11.6568 10.8678 11.3073 10.8348 10.9609C10.7999 10.6021 10.6897 10.2547 10.5114 9.9414C10.3331 9.62806 10.0908 9.35585 9.80018 9.1425C9.43484 8.87753 9.13774 8.52948 8.93342 8.12707C8.72909 7.72467 8.62338 7.27944 8.62502 6.82813V4.61151C9.51737 4.16415 10.5018 3.93121 11.5 3.93121C12.4982 3.93121 13.4827 4.16415 14.375 4.61151V6.82813C14.3767 7.27927 14.2711 7.72435 14.0669 8.12663C13.8627 8.52891 13.5658 8.87687 13.2006 9.14179C12.9098 9.35518 12.6673 9.6275 12.4889 9.94096C12.3105 10.2544 12.2002 10.602 12.1652 10.9609C12.132 11.3076 12.1723 11.6574 12.2834 11.9874C12.3944 12.3175 12.5739 12.6204 12.8099 12.8764C12.8777 12.9405 12.9225 13.0251 12.9375 13.1172C12.9375 13.2379 12.7963 13.4094 12.5857 13.5438C12.1582 13.8175 11.7892 14.1734 11.5 14.5906V14.5906Z" fill="#FD8A8C"/>
<path d="M19.0469 13.2969C19.6423 13.2969 20.125 12.4924 20.125 11.5C20.125 10.5076 19.6423 9.70312 19.0469 9.70312C18.4514 9.70312 17.9688 10.5076 17.9688 11.5C17.9688 12.4924 18.4514 13.2969 19.0469 13.2969Z" fill="#F9645A"/>
<path d="M3.95312 13.2969C4.54856 13.2969 5.03125 12.4924 5.03125 11.5C5.03125 10.5076 4.54856 9.70312 3.95312 9.70312C3.35769 9.70312 2.875 10.5076 2.875 11.5C2.875 12.4924 3.35769 13.2969 3.95312 13.2969Z" fill="#F9645A"/>
</svg>
