<svg width="24" height="23" viewBox="0 0 24 23" fill="none" xmlns="http://www.w3.org/2000/svg">
<path d="M16.8252 6.52168C16.737 6.52168 16.6488 6.48803 16.5814 6.42074C16.4468 6.28607 16.4468 6.06784 16.5814 5.93317L22.4136 0.100938C22.5483 -0.0336458 22.7665 -0.0336458 22.9012 0.100938C23.0358 0.235611 23.0358 0.453837 22.9012 0.58851L17.069 6.42074C17.0017 6.48799 16.9135 6.52168 16.8252 6.52168V6.52168Z" fill="#AABBE5"/>
<path d="M15.4567 5.11332L14.9971 5.573L17.4267 8.00269L17.8864 7.54301C18.249 7.18036 18.249 6.59235 17.8864 6.2297L16.7701 5.11337C16.4074 4.75063 15.8194 4.75063 15.4567 5.11332V5.11332Z" fill="#111C63"/>
<path d="M10.4357 17.8233L5.17576 12.5633C4.99626 12.3838 4.70522 12.3838 4.52571 12.5633L4.05943 13.0296C3.87993 13.2091 3.87993 13.5002 4.05943 13.6797L9.31937 18.9396C9.49887 19.1191 9.78991 19.1191 9.96942 18.9396L10.4357 18.4733C10.6152 18.2938 10.6152 18.0028 10.4357 17.8233Z" fill="#111C63"/>
<path d="M17.5246 8.10156L14.8979 5.4749C14.5353 5.11225 13.9473 5.11225 13.5846 5.4749L5.83594 13.2235L9.77591 17.1636L17.5246 9.41492C17.8873 9.05223 17.8873 8.46421 17.5246 8.10156V8.10156Z" fill="#E9EFFF"/>
<path d="M10.3005 10.8587L8.26158 12.8976C8.08208 13.0771 8.08208 13.3682 8.26158 13.5477L9.45019 14.7363C9.6297 14.9158 9.92074 14.9158 10.1002 14.7363L12.1392 12.6973L10.3005 10.8587Z" fill="#567FEA"/>
<path d="M1.52539 19.4195L5.66177 15.2831L7.71353 17.3349L3.57716 21.4713L1.52539 19.4195Z" fill="#C2CFF1"/>
<path d="M13.9167 7.24343L10.3018 10.8584L12.1404 12.6971L15.7554 9.08209C15.9349 8.90258 15.9349 8.61154 15.7554 8.43204L14.5668 7.24343C14.3873 7.06388 14.0962 7.06388 13.9167 7.24343V7.24343Z" fill="#C2CFF1"/>
<path d="M3.85454 21.7489L1.25096 19.1454C1.07146 18.9659 0.780413 18.9659 0.600908 19.1454L0.134628 19.6117C-0.0448761 19.7912 -0.0448761 20.0822 0.134628 20.2617L2.7382 22.8653C2.91771 23.0448 3.20875 23.0448 3.38826 22.8653L3.85454 22.399C4.03404 22.2195 4.03404 21.9285 3.85454 21.7489Z" fill="#111C63"/>
<path d="M20.5844 13.7018C19.2817 12.3991 17.178 12.3873 15.8597 13.6646C14.5414 12.3873 12.4377 12.3991 11.1351 13.7018C9.81956 15.0173 9.81956 17.1502 11.1351 18.4657L15.5347 22.8653C15.7142 23.0448 16.0053 23.0448 16.1848 22.8653L20.5844 18.4657C21.8999 17.1502 21.8999 15.0173 20.5844 13.7018V13.7018Z" fill="#ED4C4C"/>
<path d="M17.9958 16.8306H16.8757C16.7234 16.8306 16.5999 16.7071 16.5999 16.5547V15.4347C16.5999 15.2824 16.4764 15.1589 16.3241 15.1589H15.3898C15.2375 15.1589 15.114 15.2824 15.114 15.4347V16.5547C15.114 16.7071 14.9905 16.8306 14.8382 16.8306H13.7182C13.5659 16.8306 13.4424 16.954 13.4424 17.1064V18.0406C13.4424 18.193 13.5659 18.3164 13.7182 18.3164H14.8382C14.9905 18.3164 15.114 18.4399 15.114 18.5923V19.7123C15.114 19.8646 15.2375 19.9881 15.3898 19.9881H16.3241C16.4764 19.9881 16.5999 19.8646 16.5999 19.7123V18.5923C16.5999 18.4399 16.7234 18.3164 16.8757 18.3164H17.9958C18.1481 18.3164 18.2716 18.193 18.2716 18.0406V17.1064C18.2715 16.954 18.148 16.8306 17.9958 16.8306Z" fill="#F1F4F6"/>
<path d="M2.30859 20.2022L2.79617 20.6898L6.93312 16.5528H6.93317L6.44559 16.0652L2.30859 20.2022Z" fill="#111C63"/>
</svg>
