<svg width="23" height="23" viewBox="0 0 23 23" fill="none" xmlns="http://www.w3.org/2000/svg">
<mask id="mask0_18_3805" style="mask-type:alpha" maskUnits="userSpaceOnUse" x="0" y="0" width="23" height="23">
<rect width="23" height="23" fill="#C4C4C4"/>
</mask>
<g mask="url(#mask0_18_3805)">
<path fill-rule="evenodd" clip-rule="evenodd" d="M6.61729 11.3102L2.28505 13.6727C1.47904 14.1122 1.15593 15.1042 1.54848 15.9341C1.89825 16.6736 2.71767 17.0676 3.51368 16.8791L6.56574 16.1561L6.04605 19.1645C6.04605 19.1645 7.86496 21.3881 11.5028 21.3881C15.1406 21.3881 16.9585 19.1645 16.9585 19.1645L16.4398 16.1561L19.4919 16.8791C20.2879 17.0676 21.1073 16.6736 21.4571 15.9341C21.8496 15.1042 21.5265 14.1122 20.7205 13.6727L16.3888 11.3105C15.1982 12.6772 13.4508 13.5401 11.5032 13.5401C9.55544 13.5401 7.80792 12.6771 6.61729 11.3102Z" fill="#E7C2A7"/>
<ellipse cx="11.5036" cy="17.4641" rx="2.33859" ry="2.8776" fill="#E9CEBA"/>
<ellipse rx="2.33966" ry="3.13779" transform="matrix(0.965487 0.26045 -0.257197 0.966359 14.6238 19.8185)" fill="#C79978"/>
<ellipse rx="2.33966" ry="3.13779" transform="matrix(0.965487 -0.26045 0.257197 0.966359 8.38332 19.8183)" fill="#C79978"/>
<path fill-rule="evenodd" clip-rule="evenodd" d="M5.00684 3.40302C5.00684 4.37018 5.47024 5.22838 6.18571 5.76485C6.0951 6.16187 6.04723 6.57533 6.04723 7.00004C6.04723 10.0341 8.49029 12.4936 11.504 12.4936C14.5176 12.4936 16.9607 10.0341 16.9607 7.00004C16.9607 6.57494 16.9127 6.16112 16.8219 5.76376C17.5366 5.22722 17.9994 4.36954 17.9994 3.40304C17.9994 1.77767 16.6906 0.460042 15.0761 0.460042C14.1159 0.460042 13.2638 0.926139 12.7309 1.64586C12.3365 1.55464 11.9258 1.50644 11.504 1.50644C11.0816 1.50644 10.6704 1.55476 10.2756 1.6462C9.74267 0.926273 8.89046 0.460022 7.93008 0.460022C6.31562 0.460022 5.00684 1.77765 5.00684 3.40302Z" fill="#E7C2A7"/>
<ellipse cx="13.4514" cy="5.82283" rx="0.779532" ry="1.1772" fill="#4A4A4A"/>
<ellipse cx="9.55395" cy="5.82283" rx="0.779532" ry="1.1772" fill="#4A4A4A"/>
<ellipse cx="11.5057" cy="8.43884" rx="2.85828" ry="2.7468" fill="#E9CEBA"/>
<ellipse cx="11.5041" cy="7.3924" rx="0.779532" ry="0.7848" fill="#C79978"/>
</g>
</svg>
