<svg width="15" height="19" viewBox="0 0 15 19" fill="none" xmlns="http://www.w3.org/2000/svg">
<path d="M12.8234 2.28278C9.87723 -0.760927 5.11802 -0.760927 2.20963 2.28278C-0.736544 5.32649 -0.736544 10.2042 2.20963 13.2479L7.15413 18.3926C7.3418 18.5879 7.65403 18.5884 7.8424 18.3938L12.7856 13.2869C15.7318 10.2432 15.7318 5.32649 12.8234 2.28278Z" fill="#2320D4"/>
<mask id="mask0_17_1034" style="mask-type:alpha" maskUnits="userSpaceOnUse" x="3" y="3" width="10" height="9">
<rect x="3" y="3" width="9.54" height="9" fill="#C4C4C4"/>
</mask>
<g mask="url(#mask0_17_1034)">
<path d="M9.70165 4.08398H4.03439C3.8605 4.08398 3.71954 4.22495 3.71954 4.39883C3.71954 4.57271 3.8605 4.71367 4.03439 4.71367H9.70165C9.87554 4.71367 10.0165 4.57271 10.0165 4.39883C10.0165 4.22495 9.87554 4.08398 9.70165 4.08398Z" fill="white"/>
<path opacity="0.7" fill-rule="evenodd" clip-rule="evenodd" d="M11.7482 6.60254H9.54425V11.6401H11.7482V6.60254ZM10.175 7.70455C10.175 7.96538 10.3864 8.17682 10.6472 8.17682C10.9081 8.17682 11.1195 7.96538 11.1195 7.70455C11.1195 7.44372 10.9081 7.23228 10.6472 7.23228C10.3864 7.23228 10.175 7.44372 10.175 7.70455ZM10.6472 9.7512C10.3864 9.7512 10.175 9.53976 10.175 9.27893C10.175 9.0181 10.3864 8.80666 10.6472 8.80666C10.9081 8.80666 11.1195 9.0181 11.1195 9.27893C11.1195 9.53976 10.9081 9.7512 10.6472 9.7512Z" fill="white"/>
<path fill-rule="evenodd" clip-rule="evenodd" d="M4.19287 4.71338H9.54528V11.64H4.19287V4.71338ZM5.92396 9.43609H7.81305V11.64H5.92396V9.43609ZM4.82217 6.60258C4.82217 6.86341 5.03361 7.07485 5.29444 7.07485C5.55527 7.07485 5.76671 6.86341 5.76671 6.60258C5.76671 6.34175 5.55527 6.13031 5.29444 6.13031C5.03361 6.13031 4.82217 6.34175 4.82217 6.60258ZM6.86874 7.07485C6.60791 7.07485 6.39646 6.86341 6.39646 6.60258C6.39646 6.34175 6.60791 6.13031 6.86874 6.13031C7.12957 6.13031 7.34101 6.34175 7.34101 6.60258C7.34101 6.86341 7.12957 7.07485 6.86874 7.07485ZM7.97076 6.60258C7.97076 6.86341 8.18221 7.07485 8.44303 7.07485C8.70386 7.07485 8.91531 6.86341 8.91531 6.60258C8.91531 6.34175 8.70386 6.13031 8.44303 6.13031C8.18221 6.13031 7.97076 6.34175 7.97076 6.60258ZM5.29444 8.64906C5.03361 8.64906 4.82217 8.43762 4.82217 8.17679C4.82217 7.91596 5.03361 7.70452 5.29444 7.70452C5.55527 7.70452 5.76671 7.91596 5.76671 8.17679C5.76671 8.43762 5.55527 8.64906 5.29444 8.64906ZM6.39646 8.17679C6.39646 8.43762 6.60791 8.64906 6.86874 8.64906C7.12957 8.64906 7.34101 8.43762 7.34101 8.17679C7.34101 7.91596 7.12957 7.70452 6.86874 7.70452C6.60791 7.70452 6.39646 7.91596 6.39646 8.17679ZM8.44303 8.64906C8.18221 8.64906 7.97076 8.43762 7.97076 8.17679C7.97076 7.91596 8.18221 7.70452 8.44303 7.70452C8.70386 7.70452 8.91531 7.91596 8.91531 8.17679C8.91531 8.43762 8.70386 8.64906 8.44303 8.64906Z" fill="white"/>
<g filter="url(#filter0_d_17_1034)">
<circle cx="6.86192" cy="4.3914" r="0.851358" fill="white"/>
</g>
<rect x="6.72327" y="3.88037" width="0.265571" height="1.00917" rx="0.132786" fill="#ED4C4C"/>
<rect x="6.35156" y="4.51758" width="0.265571" height="1.00917" rx="0.132786" transform="rotate(-90 6.35156 4.51758)" fill="#ED4C4C"/>
<path opacity="0.6" d="M9.54749 6.12793H11.9936C12.1261 6.12793 12.2335 6.2353 12.2335 6.36775V6.36775C12.2335 6.5002 12.1261 6.60757 11.9936 6.60757H9.54749V6.12793Z" fill="white"/>
</g>
<defs>
<filter id="filter0_d_17_1034" x="2.61013" y="0.819695" width="8.50356" height="8.5035" filterUnits="userSpaceOnUse" color-interpolation-filters="sRGB">
<feFlood flood-opacity="0" result="BackgroundImageFix"/>
<feColorMatrix in="SourceAlpha" type="matrix" values="0 0 0 0 0 0 0 0 0 0 0 0 0 0 0 0 0 0 127 0" result="hardAlpha"/>
<feOffset dy="0.680086"/>
<feGaussianBlur stdDeviation="1.70022"/>
<feColorMatrix type="matrix" values="0 0 0 0 0.629279 0 0 0 0 0.654556 0 0 0 0 0.720524 0 0 0 1 0"/>
<feBlend mode="normal" in2="BackgroundImageFix" result="effect1_dropShadow_17_1034"/>
<feBlend mode="normal" in="SourceGraphic" in2="effect1_dropShadow_17_1034" result="shape"/>
</filter>
</defs>
</svg>
