<svg width="17" height="17" viewBox="0 0 17 17" fill="none" xmlns="http://www.w3.org/2000/svg">
<mask id="mask0_17_1024" style="mask-type:alpha" maskUnits="userSpaceOnUse" x="0" y="0" width="17" height="17">
<rect width="16.8" height="16.8" fill="#C4C4C4"/>
</mask>
<g mask="url(#mask0_17_1024)">
<path d="M13.2139 2.04537C10.4868 -0.68179 6.08137 -0.68179 3.38918 2.04537C0.662021 4.77253 0.662021 9.14297 3.38918 11.8701L8.28408 16.8L13.179 11.9051C15.9061 9.17795 15.9061 4.77253 13.2139 2.04537Z" fill="#ED4C4C"/>
<path d="M8.28432 3.68848L5.66205 6.27581V10.0169H10.9066V6.27581L8.28432 3.68848Z" fill="white"/>
<path d="M9.19384 7.91943H7.41071V10.0172H9.19384V7.91943Z" fill="#ED4C4C"/>
<path d="M11.5707 6.41596L8.56389 3.4091C8.42402 3.26923 8.1793 3.26923 8.00446 3.4091L4.9976 6.41596C4.85773 6.55582 4.85773 6.80055 4.9976 6.97539C5.13746 7.11525 5.38219 7.11525 5.55703 6.97539L8.28419 4.21325L11.0113 6.94041C11.0813 7.01033 11.1862 7.0453 11.291 7.0453C11.3959 7.0453 11.5008 7.01033 11.5707 6.94041C11.7106 6.80058 11.7106 6.55582 11.5707 6.41596Z" fill="white"/>
</g>
</svg>
